<mxfile host="app.diagrams.net" agent="Mozilla/5.0 (Windows NT 10.0; Win64; x64; rv:139.0) Gecko/20100101 Firefox/139.0" version="27.1.4">
  <diagram name="Page-1" id="xGgSwy87vd3x6gRBEE29">
    <mxGraphModel dx="786" dy="1687" grid="1" gridSize="10" guides="1" tooltips="1" connect="1" arrows="1" fold="1" page="1" pageScale="1" pageWidth="827" pageHeight="1169" math="0" shadow="0" adaptiveColors="auto">
      <root>
        <mxCell id="0" />
        <mxCell id="1" parent="0" />
        <mxCell id="tZvWTqfMRKIZrLDFeVp1-6" style="edgeStyle=orthogonalEdgeStyle;rounded=1;orthogonalLoop=1;jettySize=auto;html=1;exitX=1;exitY=0.5;exitDx=0;exitDy=0;entryX=0;entryY=0.5;entryDx=0;entryDy=0;labelBackgroundColor=none;fontColor=default;fillColor=#eeeeee;strokeColor=#36393d;" edge="1" parent="1" source="tZvWTqfMRKIZrLDFeVp1-1" target="tZvWTqfMRKIZrLDFeVp1-3">
          <mxGeometry relative="1" as="geometry" />
        </mxCell>
        <mxCell id="tZvWTqfMRKIZrLDFeVp1-1" value="&lt;div&gt;Breach&lt;/div&gt;&lt;div&gt;Depressions&lt;/div&gt;" style="rounded=1;whiteSpace=wrap;html=1;absoluteArcSize=1;arcSize=14;strokeWidth=2;labelBackgroundColor=none;fillColor=#eeeeee;strokeColor=#36393d;" vertex="1" parent="1">
          <mxGeometry x="200" y="-535" width="100" height="50" as="geometry" />
        </mxCell>
        <mxCell id="tZvWTqfMRKIZrLDFeVp1-7" style="edgeStyle=orthogonalEdgeStyle;rounded=1;orthogonalLoop=1;jettySize=auto;html=1;exitX=1;exitY=0.5;exitDx=0;exitDy=0;entryX=0;entryY=0.5;entryDx=0;entryDy=0;labelBackgroundColor=none;fontColor=default;" edge="1" parent="1" target="tZvWTqfMRKIZrLDFeVp1-1">
          <mxGeometry relative="1" as="geometry">
            <mxPoint x="168.5" y="-510" as="sourcePoint" />
          </mxGeometry>
        </mxCell>
        <mxCell id="tZvWTqfMRKIZrLDFeVp1-15" style="edgeStyle=orthogonalEdgeStyle;rounded=1;orthogonalLoop=1;jettySize=auto;html=1;exitX=1;exitY=0.5;exitDx=0;exitDy=0;labelBackgroundColor=none;fontColor=default;" edge="1" parent="1" source="tZvWTqfMRKIZrLDFeVp1-3">
          <mxGeometry relative="1" as="geometry">
            <mxPoint x="475.5" y="-510" as="targetPoint" />
          </mxGeometry>
        </mxCell>
        <mxCell id="tZvWTqfMRKIZrLDFeVp1-3" value="&lt;div&gt;Fill&lt;/div&gt;&lt;div&gt;Depressions&lt;/div&gt;" style="rounded=1;whiteSpace=wrap;html=1;absoluteArcSize=1;arcSize=14;strokeWidth=2;labelBackgroundColor=none;fillColor=#eeeeee;strokeColor=#36393d;" vertex="1" parent="1">
          <mxGeometry x="330" y="-535" width="100" height="50" as="geometry" />
        </mxCell>
        <mxCell id="tZvWTqfMRKIZrLDFeVp1-16" style="edgeStyle=orthogonalEdgeStyle;rounded=1;orthogonalLoop=1;jettySize=auto;html=1;exitX=1;exitY=0.5;exitDx=0;exitDy=0;entryX=0;entryY=0.5;entryDx=0;entryDy=0;labelBackgroundColor=none;fontColor=default;" edge="1" parent="1" target="tZvWTqfMRKIZrLDFeVp1-9">
          <mxGeometry relative="1" as="geometry">
            <mxPoint x="552.5" y="-510" as="sourcePoint" />
          </mxGeometry>
        </mxCell>
        <mxCell id="tZvWTqfMRKIZrLDFeVp1-17" style="edgeStyle=orthogonalEdgeStyle;rounded=1;orthogonalLoop=1;jettySize=auto;html=1;exitX=0.5;exitY=1;exitDx=0;exitDy=0;labelBackgroundColor=none;fontColor=default;" edge="1" parent="1" target="tZvWTqfMRKIZrLDFeVp1-13">
          <mxGeometry relative="1" as="geometry">
            <mxPoint x="514" y="-480" as="sourcePoint" />
          </mxGeometry>
        </mxCell>
        <mxCell id="tZvWTqfMRKIZrLDFeVp1-39" style="edgeStyle=orthogonalEdgeStyle;rounded=0;orthogonalLoop=1;jettySize=auto;html=1;exitX=1;exitY=0.5;exitDx=0;exitDy=0;entryX=0;entryY=0.5;entryDx=0;entryDy=0;" edge="1" parent="1" source="tZvWTqfMRKIZrLDFeVp1-9" target="tZvWTqfMRKIZrLDFeVp1-36">
          <mxGeometry relative="1" as="geometry" />
        </mxCell>
        <mxCell id="tZvWTqfMRKIZrLDFeVp1-9" value="&lt;div&gt;D8 Flow&lt;/div&gt;&lt;div&gt;Accumulation&lt;/div&gt;" style="rounded=1;whiteSpace=wrap;html=1;absoluteArcSize=1;arcSize=14;strokeWidth=2;labelBackgroundColor=none;fillColor=#eeeeee;strokeColor=#36393d;" vertex="1" parent="1">
          <mxGeometry x="590" y="-535" width="100" height="50" as="geometry" />
        </mxCell>
        <mxCell id="tZvWTqfMRKIZrLDFeVp1-12" value="&lt;div&gt;Extract&lt;/div&gt;&lt;div&gt;Streams&lt;/div&gt;" style="rounded=1;whiteSpace=wrap;html=1;absoluteArcSize=1;arcSize=14;strokeWidth=2;labelBackgroundColor=none;fillColor=#eeeeee;strokeColor=#36393d;" vertex="1" parent="1">
          <mxGeometry x="715" y="-440" width="100" height="50" as="geometry" />
        </mxCell>
        <mxCell id="tZvWTqfMRKIZrLDFeVp1-41" style="edgeStyle=orthogonalEdgeStyle;rounded=0;orthogonalLoop=1;jettySize=auto;html=1;exitX=0.5;exitY=1;exitDx=0;exitDy=0;entryX=0.5;entryY=0;entryDx=0;entryDy=0;" edge="1" parent="1" source="tZvWTqfMRKIZrLDFeVp1-13" target="tZvWTqfMRKIZrLDFeVp1-35">
          <mxGeometry relative="1" as="geometry" />
        </mxCell>
        <mxCell id="tZvWTqfMRKIZrLDFeVp1-13" value="&lt;div&gt;D8 Pointer&lt;/div&gt;" style="rounded=1;whiteSpace=wrap;html=1;absoluteArcSize=1;arcSize=14;strokeWidth=2;labelBackgroundColor=none;fillColor=#eeeeee;strokeColor=#36393d;" vertex="1" parent="1">
          <mxGeometry x="464" y="-440" width="100" height="50" as="geometry" />
        </mxCell>
        <mxCell id="tZvWTqfMRKIZrLDFeVp1-14" value="&lt;div&gt;Unnest&lt;/div&gt;&lt;div&gt;Basins&lt;/div&gt;" style="rounded=1;whiteSpace=wrap;html=1;absoluteArcSize=1;arcSize=14;strokeWidth=2;labelBackgroundColor=none;fillColor=#eeeeee;strokeColor=#36393d;" vertex="1" parent="1">
          <mxGeometry x="600" y="-310" width="100" height="50" as="geometry" />
        </mxCell>
        <mxCell id="tZvWTqfMRKIZrLDFeVp1-21" value="&lt;div&gt;Flow accumulation&amp;nbsp;&lt;/div&gt;&lt;div&gt;grid&lt;/div&gt;" style="shape=parallelogram;html=1;strokeWidth=2;perimeter=parallelogramPerimeter;whiteSpace=wrap;rounded=1;arcSize=12;size=0.23;labelBackgroundColor=none;" vertex="1" parent="1">
          <mxGeometry x="740" y="-290" width="100" height="60" as="geometry" />
        </mxCell>
        <mxCell id="tZvWTqfMRKIZrLDFeVp1-22" style="edgeStyle=orthogonalEdgeStyle;rounded=1;orthogonalLoop=1;jettySize=auto;html=1;exitX=0.5;exitY=1;exitDx=0;exitDy=0;entryX=0.633;entryY=0.067;entryDx=0;entryDy=0;entryPerimeter=0;labelBackgroundColor=none;fontColor=default;" edge="1" parent="1" source="tZvWTqfMRKIZrLDFeVp1-12" target="tZvWTqfMRKIZrLDFeVp1-21">
          <mxGeometry relative="1" as="geometry" />
        </mxCell>
        <mxCell id="tZvWTqfMRKIZrLDFeVp1-23" value="&lt;div&gt;Flow&amp;nbsp;&lt;/div&gt;&lt;div&gt;pointer&amp;nbsp;&lt;/div&gt;&lt;div&gt;grid&lt;/div&gt;" style="shape=parallelogram;html=1;strokeWidth=2;perimeter=parallelogramPerimeter;whiteSpace=wrap;rounded=1;arcSize=12;size=0.23;labelBackgroundColor=none;" vertex="1" parent="1">
          <mxGeometry x="350" y="-260" width="100" height="60" as="geometry" />
        </mxCell>
        <mxCell id="tZvWTqfMRKIZrLDFeVp1-29" value="DEM" style="rounded=1;whiteSpace=wrap;html=1;absoluteArcSize=1;arcSize=14;strokeWidth=2;labelBackgroundColor=none;" vertex="1" parent="1">
          <mxGeometry x="80" y="-540" width="90" height="60" as="geometry" />
        </mxCell>
        <mxCell id="tZvWTqfMRKIZrLDFeVp1-31" value="Watershed" style="rounded=1;whiteSpace=wrap;html=1;absoluteArcSize=1;arcSize=14;strokeWidth=2;labelBackgroundColor=none;" vertex="1" parent="1">
          <mxGeometry x="620" y="-230" width="90" height="60" as="geometry" />
        </mxCell>
        <mxCell id="tZvWTqfMRKIZrLDFeVp1-34" value="" style="edgeStyle=orthogonalEdgeStyle;rounded=0;orthogonalLoop=1;jettySize=auto;html=1;" edge="1" parent="1" source="tZvWTqfMRKIZrLDFeVp1-32" target="tZvWTqfMRKIZrLDFeVp1-9">
          <mxGeometry relative="1" as="geometry" />
        </mxCell>
        <mxCell id="tZvWTqfMRKIZrLDFeVp1-32" value="&lt;div&gt;Modified&lt;/div&gt;&lt;div&gt;DEM&lt;/div&gt;" style="rounded=1;whiteSpace=wrap;html=1;absoluteArcSize=1;arcSize=14;strokeWidth=2;labelBackgroundColor=none;" vertex="1" parent="1">
          <mxGeometry x="474" y="-540" width="90" height="60" as="geometry" />
        </mxCell>
        <mxCell id="tZvWTqfMRKIZrLDFeVp1-35" value="&lt;div&gt;Flow&amp;nbsp;&lt;/div&gt;&lt;div&gt;pointer&amp;nbsp;&lt;/div&gt;&lt;div&gt;grid&lt;/div&gt;" style="rounded=1;whiteSpace=wrap;html=1;absoluteArcSize=1;arcSize=14;strokeWidth=2;labelBackgroundColor=none;" vertex="1" parent="1">
          <mxGeometry x="469" y="-350" width="90" height="60" as="geometry" />
        </mxCell>
        <mxCell id="tZvWTqfMRKIZrLDFeVp1-40" style="edgeStyle=orthogonalEdgeStyle;rounded=0;orthogonalLoop=1;jettySize=auto;html=1;exitX=0.5;exitY=1;exitDx=0;exitDy=0;entryX=0.5;entryY=0;entryDx=0;entryDy=0;" edge="1" parent="1" source="tZvWTqfMRKIZrLDFeVp1-36" target="tZvWTqfMRKIZrLDFeVp1-12">
          <mxGeometry relative="1" as="geometry" />
        </mxCell>
        <mxCell id="tZvWTqfMRKIZrLDFeVp1-36" value="&lt;div&gt;Flow accumulation&amp;nbsp;&lt;/div&gt;&lt;div&gt;grid&lt;/div&gt;" style="rounded=1;whiteSpace=wrap;html=1;absoluteArcSize=1;arcSize=14;strokeWidth=2;labelBackgroundColor=none;" vertex="1" parent="1">
          <mxGeometry x="720" y="-540" width="90" height="60" as="geometry" />
        </mxCell>
        <mxCell id="tZvWTqfMRKIZrLDFeVp1-43" value="Stream cells" style="rounded=1;whiteSpace=wrap;html=1;absoluteArcSize=1;arcSize=14;strokeWidth=2;labelBackgroundColor=none;" vertex="1" parent="1">
          <mxGeometry x="670" y="-380" width="90" height="60" as="geometry" />
        </mxCell>
      </root>
    </mxGraphModel>
  </diagram>
</mxfile>
